{"buffers":[{"uri":"model.bin","byteLength":1893096}],"asset":{"version":"2.0","generator":"gltfpack 0.16"},"bufferViews":[{"buffer":0,"byteOffset":0,"byteLength":719388,"byteStride":12,"target":34962},{"buffer":0,"byteOffset":719388,"byteLength":719388,"byteStride":12,"target":34962},{"buffer":0,"byteOffset":1438776,"byteLength":454320,"target":34963}],"accessors":[{"bufferView":0,"byteOffset":0,"componentType":5126,"count":2166,"type":"VEC3","min":[-3.39318204,-7.92306566,-1.84656],"max":[-0.793192148,-1.52761567,4.45289993]},{"bufferView":1,"byteOffset":0,"componentType":5126,"count":2166,"type":"VEC3"},{"bufferView":2,"byteOffset":0,"componentType":5123,"count":8412,"type":"SCALAR"},{"bufferView":0,"byteOffset":25992,"componentType":5126,"count":2174,"type":"VEC3","min":[-3.39318204,-7.90072584,-1.84499991],"max":[-0.793192148,-1.52314568,4.44959021]},{"bufferView":1,"byteOffset":25992,"componentType":5126,"count":2174,"type":"VEC3"},{"bufferView":2,"byteOffset":16824,"componentType":5123,"count":8436,"type":"SCALAR"},{"bufferView":0,"byteOffset":52080,"componentType":5126,"count":2176,"type":"VEC3","min":[-3.39318204,-7.82231569,-1.84670997],"max":[-0.793192148,-1.52309573,4.45269012]},{"bufferView":1,"byteOffset":52080,"componentType":5126,"count":2176,"type":"VEC3"},{"bufferView":2,"byteOffset":33696,"componentType":5123,"count":8448,"type":"SCALAR"},{"bufferView":0,"byteOffset":78192,"componentType":5126,"count":2176,"type":"VEC3","min":[-3.39318204,-7.82132578,-1.84345996],"max":[-0.793192148,-1.52643573,4.45142984]},{"bufferView":1,"byteOffset":78192,"componentType":5126,"count":2176,"type":"VEC3"},{"bufferView":2,"byteOffset":50592,"componentType":5123,"count":8448,"type":"SCALAR"},{"bufferView":0,"byteOffset":104304,"componentType":5126,"count":2176,"type":"VEC3","min":[-3.39318204,-7.82258558,-1.84679997],"max":[-0.793192148,-1.52318573,4.45242023]},{"bufferView":1,"byteOffset":104304,"componentType":5126,"count":2176,"type":"VEC3"},{"bufferView":2,"byteOffset":67488,"componentType":5123,"count":8448,"type":"SCALAR"},{"bufferView":0,"byteOffset":130416,"componentType":5126,"count":2174,"type":"VEC3","min":[-3.39318204,-7.81948566,-1.8467499],"max":[-0.793192148,-1.52489567,4.50495005]},{"bufferView":1,"byteOffset":130416,"componentType":5126,"count":2174,"type":"VEC3"},{"bufferView":2,"byteOffset":84384,"componentType":5123,"count":8436,"type":"SCALAR"},{"bufferView":0,"byteOffset":156504,"componentType":5126,"count":2166,"type":"VEC3","min":[-3.39318204,-7.82279587,-1.84227991],"max":[-0.793192148,-1.5233357,4.5531702]},{"bufferView":1,"byteOffset":156504,"componentType":5126,"count":2166,"type":"VEC3"},{"bufferView":2,"byteOffset":101256,"componentType":5123,"count":8412,"type":"SCALAR"},{"bufferView":0,"byteOffset":182496,"componentType":5126,"count":2174,"type":"VEC3","min":[-3.39318204,-7.82123566,-1.8467499],"max":[-0.793192148,-1.52664566,4.53082991]},{"bufferView":1,"byteOffset":182496,"componentType":5126,"count":2174,"type":"VEC3"},{"bufferView":2,"byteOffset":118080,"componentType":5123,"count":8436,"type":"SCALAR"},{"bufferView":0,"byteOffset":208584,"componentType":5126,"count":2176,"type":"VEC3","min":[-3.39318204,-7.82294559,-1.84679997],"max":[-0.793192148,-1.52354562,4.45242023]},{"bufferView":1,"byteOffset":208584,"componentType":5126,"count":2176,"type":"VEC3"},{"bufferView":2,"byteOffset":134952,"componentType":5123,"count":8448,"type":"SCALAR"},{"bufferView":0,"byteOffset":234696,"componentType":5126,"count":2176,"type":"VEC3","min":[-3.39318204,-7.81969547,-1.84345996],"max":[-0.793192148,-1.52480567,4.45142984]},{"bufferView":1,"byteOffset":234696,"componentType":5126,"count":2176,"type":"VEC3"},{"bufferView":2,"byteOffset":151848,"componentType":5123,"count":8448,"type":"SCALAR"},{"bufferView":0,"byteOffset":260808,"componentType":5126,"count":2176,"type":"VEC3","min":[-3.39318204,-7.82303572,-1.84670997],"max":[-0.793192148,-1.52381563,4.45269012]},{"bufferView":1,"byteOffset":260808,"componentType":5126,"count":2176,"type":"VEC3"},{"bufferView":2,"byteOffset":168744,"componentType":5123,"count":8448,"type":"SCALAR"},{"bufferView":0,"byteOffset":286920,"componentType":5126,"count":2174,"type":"VEC3","min":[-3.39318204,-7.82298565,-1.84499991],"max":[-0.793192148,-1.4712857,4.44959021]},{"bufferView":1,"byteOffset":286920,"componentType":5126,"count":2174,"type":"VEC3"},{"bufferView":2,"byteOffset":185640,"componentType":5123,"count":8436,"type":"SCALAR"},{"bufferView":0,"byteOffset":313008,"componentType":5126,"count":2166,"type":"VEC3","min":[-3.39318204,-7.81851578,-1.84656],"max":[-0.793192148,-1.42306566,4.45289993]},{"bufferView":1,"byteOffset":313008,"componentType":5126,"count":2166,"type":"VEC3"},{"bufferView":2,"byteOffset":202512,"componentType":5123,"count":8412,"type":"SCALAR"},{"bufferView":0,"byteOffset":339000,"componentType":5126,"count":2174,"type":"VEC3","min":[-3.39318204,-7.82298565,-1.84324992],"max":[-0.793192148,-1.44540572,4.4513402]},{"bufferView":1,"byteOffset":339000,"componentType":5126,"count":2174,"type":"VEC3"},{"bufferView":2,"byteOffset":219336,"componentType":5123,"count":8436,"type":"SCALAR"},{"bufferView":0,"byteOffset":365088,"componentType":5126,"count":2176,"type":"VEC3","min":[-3.39318204,-7.82303572,-1.84634995],"max":[-0.793192148,-1.52381563,4.45305014]},{"bufferView":1,"byteOffset":365088,"componentType":5126,"count":2176,"type":"VEC3"},{"bufferView":2,"byteOffset":236208,"componentType":5123,"count":8448,"type":"SCALAR"},{"bufferView":0,"byteOffset":391200,"componentType":5126,"count":2176,"type":"VEC3","min":[-3.39318204,-7.81969547,-1.84508991],"max":[-0.793192148,-1.52480567,4.44980001]},{"bufferView":1,"byteOffset":391200,"componentType":5126,"count":2176,"type":"VEC3"},{"bufferView":2,"byteOffset":253104,"componentType":5123,"count":8448,"type":"SCALAR"},{"bufferView":0,"byteOffset":417312,"componentType":5126,"count":2176,"type":"VEC3","min":[-3.39318204,-7.82294559,-1.84607995],"max":[-0.793192148,-1.52354562,4.45314026]},{"bufferView":1,"byteOffset":417312,"componentType":5126,"count":2176,"type":"VEC3"},{"bufferView":2,"byteOffset":270000,"componentType":5123,"count":8448,"type":"SCALAR"},{"bufferView":0,"byteOffset":443424,"componentType":5126,"count":2174,"type":"VEC3","min":[-3.39318204,-7.82123566,-1.89861],"max":[-0.793192148,-1.52664566,4.45309019]},{"bufferView":1,"byteOffset":443424,"componentType":5126,"count":2174,"type":"VEC3"},{"bufferView":2,"byteOffset":286896,"componentType":5123,"count":8436,"type":"SCALAR"},{"bufferView":0,"byteOffset":469512,"componentType":5126,"count":2166,"type":"VEC3","min":[-3.39318204,-7.82279587,-1.94682992],"max":[-0.793192148,-1.5233357,4.44861984]},{"bufferView":1,"byteOffset":469512,"componentType":5126,"count":2166,"type":"VEC3"},{"bufferView":2,"byteOffset":303768,"componentType":5123,"count":8412,"type":"SCALAR"},{"bufferView":0,"byteOffset":495504,"componentType":5126,"count":2174,"type":"VEC3","min":[-3.39318204,-7.81948566,-1.92448997],"max":[-0.793192148,-1.52489567,4.45309019]},{"bufferView":1,"byteOffset":495504,"componentType":5126,"count":2174,"type":"VEC3"},{"bufferView":2,"byteOffset":320592,"componentType":5123,"count":8436,"type":"SCALAR"},{"bufferView":0,"byteOffset":521592,"componentType":5126,"count":2176,"type":"VEC3","min":[-3.39318204,-7.82258558,-1.84607995],"max":[-0.793192148,-1.52318573,4.45314026]},{"bufferView":1,"byteOffset":521592,"componentType":5126,"count":2176,"type":"VEC3"},{"bufferView":2,"byteOffset":337464,"componentType":5123,"count":8448,"type":"SCALAR"},{"bufferView":0,"byteOffset":547704,"componentType":5126,"count":2176,"type":"VEC3","min":[-3.39318204,-7.82132578,-1.84508991],"max":[-0.793192148,-1.52643573,4.44980001]},{"bufferView":1,"byteOffset":547704,"componentType":5126,"count":2176,"type":"VEC3"},{"bufferView":2,"byteOffset":354360,"componentType":5123,"count":8448,"type":"SCALAR"},{"bufferView":0,"byteOffset":573816,"componentType":5126,"count":2176,"type":"VEC3","min":[-3.39318204,-7.82231569,-1.84634995],"max":[-0.793192148,-1.52309573,4.45305014]},{"bufferView":1,"byteOffset":573816,"componentType":5126,"count":2176,"type":"VEC3"},{"bufferView":2,"byteOffset":371256,"componentType":5123,"count":8448,"type":"SCALAR"},{"bufferView":0,"byteOffset":599928,"componentType":5126,"count":2174,"type":"VEC3","min":[-3.39318204,-7.8748455,-1.84324992],"max":[-0.793192148,-1.52314568,4.4513402]},{"bufferView":1,"byteOffset":599928,"componentType":5126,"count":2174,"type":"VEC3"},{"bufferView":2,"byteOffset":388152,"componentType":5123,"count":8436,"type":"SCALAR"},{"bufferView":0,"byteOffset":626016,"componentType":5126,"count":4319,"type":"VEC3","min":[-3.83976316,-7.16939545,-1.19682992],"max":[-0.789773166,-2.17673564,3.80316997]},{"bufferView":1,"byteOffset":626016,"componentType":5126,"count":4319,"type":"VEC3"},{"bufferView":2,"byteOffset":405024,"componentType":5123,"count":13386,"type":"SCALAR"},{"bufferView":0,"byteOffset":677844,"componentType":5126,"count":638,"type":"VEC3","min":[-5.46685886,-8.2470665,0.185000002],"max":[-3.41585875,-2.9270668,2.41499996]},{"bufferView":1,"byteOffset":677844,"componentType":5126,"count":638,"type":"VEC3"},{"bufferView":2,"byteOffset":431796,"componentType":5123,"count":1908,"type":"SCALAR"},{"bufferView":0,"byteOffset":685500,"componentType":5126,"count":544,"type":"VEC3","min":[-6.37685871,-9.94706631,0.27500999],"max":[-2.68986893,-4.2604866,2.32499003]},{"bufferView":1,"byteOffset":685500,"componentType":5126,"count":544,"type":"VEC3"},{"bufferView":2,"byteOffset":435612,"componentType":5123,"count":1494,"type":"SCALAR"},{"bufferView":0,"byteOffset":692028,"componentType":5126,"count":311,"type":"VEC3","min":[-5.36685896,-9.84706688,0.28501001],"max":[-3.84085894,-9.34706688,2.31499004]},{"bufferView":1,"byteOffset":692028,"componentType":5126,"count":311,"type":"VEC3"},{"bufferView":2,"byteOffset":438600,"componentType":5123,"count":1194,"type":"SCALAR"},{"bufferView":0,"byteOffset":695760,"componentType":5126,"count":12,"type":"VEC3","min":[-5.36685896,-9.59706688,0.614780009],"max":[-5.11686897,-9.34706688,1.98521996]},{"bufferView":1,"byteOffset":695760,"componentType":5126,"count":12,"type":"VEC3"},{"bufferView":2,"byteOffset":440988,"componentType":5123,"count":30,"type":"SCALAR"},{"bufferView":0,"byteOffset":695904,"componentType":5126,"count":690,"type":"VEC3","min":[-19.6000004,-11,0],"max":[0.100000001,0.200000003,7.67832994]},{"bufferView":1,"byteOffset":695904,"componentType":5126,"count":690,"type":"VEC3"},{"bufferView":2,"byteOffset":441048,"componentType":5123,"count":1740,"type":"SCALAR"},{"bufferView":0,"byteOffset":704184,"componentType":5126,"count":186,"type":"VEC3","min":[-16.1000004,-10.1980696,0.400000006],"max":[-13.6999903,-3.19807005,0.800000012]},{"bufferView":1,"byteOffset":704184,"componentType":5126,"count":186,"type":"VEC3"},{"bufferView":2,"byteOffset":444528,"componentType":5123,"count":450,"type":"SCALAR"},{"bufferView":0,"byteOffset":706416,"componentType":5126,"count":186,"type":"VEC3","min":[-5.80000019,-10.1980696,0.400000006],"max":[-3.4000001,-3.19807005,0.800000012]},{"bufferView":1,"byteOffset":706416,"componentType":5126,"count":186,"type":"VEC3"},{"bufferView":2,"byteOffset":445428,"componentType":5123,"count":450,"type":"SCALAR"},{"bufferView":0,"byteOffset":708648,"componentType":5126,"count":895,"type":"VEC3","min":[-19.5909004,-14.6211205,0],"max":[0.0908999965,-11,7.2301898]},{"bufferView":1,"byteOffset":708648,"componentType":5126,"count":895,"type":"VEC3"},{"bufferView":2,"byteOffset":446328,"componentType":5123,"count":3996,"type":"SCALAR"}],"materials":[{"pbrMetallicRoughness":{"baseColorFactor":[0.627451003,0.627451003,0.627451003,1],"metallicFactor":0},"doubleSided":true},{"pbrMetallicRoughness":{"baseColorFactor":[1,0.937254906,0.137254909,1],"metallicFactor":0},"doubleSided":true},{"pbrMetallicRoughness":{"baseColorFactor":[1,1,0,1],"metallicFactor":0},"doubleSided":true},{"pbrMetallicRoughness":{"baseColorFactor":[0.698039234,0.698039234,0.698039234,1],"metallicFactor":0},"doubleSided":true},{"pbrMetallicRoughness":{"baseColorFactor":[0.800000012,0.525490224,0,1],"metallicFactor":0},"doubleSided":true},{"pbrMetallicRoughness":{"baseColorFactor":[0.647058845,0.631372571,0.627451003,1],"metallicFactor":0},"doubleSided":true}],"meshes":[{"primitives":[{"attributes":{"POSITION":0,"NORMAL":1},"mode":4,"indices":2,"material":0}]},{"primitives":[{"attributes":{"POSITION":3,"NORMAL":4},"mode":4,"indices":5,"material":0}]},{"primitives":[{"attributes":{"POSITION":6,"NORMAL":7},"mode":4,"indices":8,"material":0}]},{"primitives":[{"attributes":{"POSITION":9,"NORMAL":10},"mode":4,"indices":11,"material":0}]},{"primitives":[{"attributes":{"POSITION":12,"NORMAL":13},"mode":4,"indices":14,"material":0}]},{"primitives":[{"attributes":{"POSITION":15,"NORMAL":16},"mode":4,"indices":17,"material":0}]},{"primitives":[{"attributes":{"POSITION":18,"NORMAL":19},"mode":4,"indices":20,"material":0}]},{"primitives":[{"attributes":{"POSITION":21,"NORMAL":22},"mode":4,"indices":23,"material":0}]},{"primitives":[{"attributes":{"POSITION":24,"NORMAL":25},"mode":4,"indices":26,"material":0}]},{"primitives":[{"attributes":{"POSITION":27,"NORMAL":28},"mode":4,"indices":29,"material":0}]},{"primitives":[{"attributes":{"POSITION":30,"NORMAL":31},"mode":4,"indices":32,"material":0}]},{"primitives":[{"attributes":{"POSITION":33,"NORMAL":34},"mode":4,"indices":35,"material":0}]},{"primitives":[{"attributes":{"POSITION":36,"NORMAL":37},"mode":4,"indices":38,"material":0}]},{"primitives":[{"attributes":{"POSITION":39,"NORMAL":40},"mode":4,"indices":41,"material":0}]},{"primitives":[{"attributes":{"POSITION":42,"NORMAL":43},"mode":4,"indices":44,"material":0}]},{"primitives":[{"attributes":{"POSITION":45,"NORMAL":46},"mode":4,"indices":47,"material":0}]},{"primitives":[{"attributes":{"POSITION":48,"NORMAL":49},"mode":4,"indices":50,"material":0}]},{"primitives":[{"attributes":{"POSITION":51,"NORMAL":52},"mode":4,"indices":53,"material":0}]},{"primitives":[{"attributes":{"POSITION":54,"NORMAL":55},"mode":4,"indices":56,"material":0}]},{"primitives":[{"attributes":{"POSITION":57,"NORMAL":58},"mode":4,"indices":59,"material":0}]},{"primitives":[{"attributes":{"POSITION":60,"NORMAL":61},"mode":4,"indices":62,"material":0}]},{"primitives":[{"attributes":{"POSITION":63,"NORMAL":64},"mode":4,"indices":65,"material":0}]},{"primitives":[{"attributes":{"POSITION":66,"NORMAL":67},"mode":4,"indices":68,"material":0}]},{"primitives":[{"attributes":{"POSITION":69,"NORMAL":70},"mode":4,"indices":71,"material":0}]},{"primitives":[{"attributes":{"POSITION":72,"NORMAL":73},"mode":4,"indices":74,"material":1}]},{"primitives":[{"attributes":{"POSITION":75,"NORMAL":76},"mode":4,"indices":77,"material":2},{"attributes":{"POSITION":78,"NORMAL":79},"mode":4,"indices":80,"material":0},{"attributes":{"POSITION":81,"NORMAL":82},"mode":4,"indices":83,"material":3},{"attributes":{"POSITION":84,"NORMAL":85},"mode":4,"indices":86,"material":4}]},{"primitives":[{"attributes":{"POSITION":87,"NORMAL":88},"mode":4,"indices":89,"material":5}]},{"primitives":[{"attributes":{"POSITION":90,"NORMAL":91},"mode":4,"indices":92,"material":5}]},{"primitives":[{"attributes":{"POSITION":93,"NORMAL":94},"mode":4,"indices":95,"material":5}]},{"primitives":[{"attributes":{"POSITION":96,"NORMAL":97},"mode":4,"indices":98,"material":5}]}],"nodes":[{"mesh":0},{"mesh":1},{"mesh":2},{"mesh":3},{"mesh":4},{"mesh":5},{"mesh":6},{"mesh":7},{"mesh":8},{"mesh":9},{"mesh":10},{"mesh":11},{"mesh":12},{"mesh":13},{"mesh":14},{"mesh":15},{"mesh":16},{"mesh":17},{"mesh":18},{"mesh":19},{"mesh":20},{"mesh":21},{"mesh":22},{"mesh":23},{"mesh":24},{"mesh":25},{"mesh":26},{"mesh":27},{"mesh":28},{"mesh":29},{"name":"Exterior","children":[0]},{"name":"Exterior","children":[1]},{"name":"Exterior","children":[2]},{"name":"Exterior","children":[3]},{"name":"Exterior","children":[4]},{"name":"Exterior","children":[5]},{"name":"Exterior","children":[6]},{"name":"Exterior","children":[7]},{"name":"Exterior","children":[8]},{"name":"Exterior","children":[9]},{"name":"Exterior","children":[10]},{"name":"Exterior","children":[11]},{"name":"Exterior","children":[12]},{"name":"Exterior","children":[13]},{"name":"Exterior","children":[14]},{"name":"Exterior","children":[15]},{"name":"Exterior","children":[16]},{"name":"Exterior","children":[17]},{"name":"Exterior","children":[18]},{"name":"Exterior","children":[19]},{"name":"Exterior","children":[20]},{"name":"Exterior","children":[21]},{"name":"Exterior","children":[22]},{"name":"Exterior","children":[23]},{"name":"Interior","children":[24]},{"name":"1103 v1","children":[25]},{"name":"RobotFutbolista_Finiquitado v1","children":[26]},{"name":"RobotFutbolista_Finiquitado v1","children":[27]},{"name":"RobotFutbolista_Finiquitado v1","children":[28]},{"name":"RobotFutbolista_Finiquitado v1","children":[29]}],"scenes":[{"nodes":[30,31,32,33,34,35,36,37,38,39,40,41,42,43,44,45,46,47,48,49,50,51,52,53,54,55,56,57,58,59]}]}