<?xml version="1.0" encoding="UTF-8" standalone="no"?>
<!-- Generator: Adobe Illustrator 26.0.3, SVG Export Plug-In . SVG Version: 6.00 Build 0)  -->

<svg
   version="1.0"
   id="katman_1"
   x="0px"
   y="0px"
   viewBox="0 0 224.7 152.2"
   style="enable-background:new 0 0 224.7 152.2;"
   xml:space="preserve"
   sodipodi:docname="Google Play Store Apple App Store Icons.svg"
   inkscape:version="1.2.2 (732a01da63, 2022-12-09)"
   xmlns:inkscape="http://www.inkscape.org/namespaces/inkscape"
   xmlns:sodipodi="http://sodipodi.sourceforge.net/DTD/sodipodi-0.dtd"
   xmlns="http://www.w3.org/2000/svg"
   xmlns:svg="http://www.w3.org/2000/svg"><defs
   id="defs75" /><sodipodi:namedview
   id="namedview73"
   pagecolor="#505050"
   bordercolor="#ffffff"
   borderopacity="1"
   inkscape:showpageshadow="0"
   inkscape:pageopacity="0"
   inkscape:pagecheckerboard="1"
   inkscape:deskcolor="#505050"
   showgrid="false"
   inkscape:zoom="5.0826205"
   inkscape:cx="60.205164"
   inkscape:cy="72.010099"
   inkscape:window-width="1360"
   inkscape:window-height="705"
   inkscape:window-x="-8"
   inkscape:window-y="-8"
   inkscape:window-maximized="1"
   inkscape:current-layer="Layer_2_00000032630537402916079620000005771629566145038760_" />
<style
   type="text/css"
   id="style2">
	.st0{fill:#FFFFFF;}
	.st1{fill:#010101;}
	.st2{fill:#A7A6A6;}
	.st3{fill:url(#SVGID_1_);}
	.st4{fill:url(#SVGID_00000072999302566707358970000005309266353053502122_);}
	.st5{fill:url(#SVGID_00000121981423209464055410000015594093630039114114_);}
	.st6{fill:url(#SVGID_00000054968097831448004930000007837267160521875588_);}
	.st7{opacity:0.2;fill:#010101;enable-background:new    ;}
	.st8{opacity:0.12;fill:#010101;enable-background:new    ;}
	.st9{opacity:0.25;fill:#FFFFFF;enable-background:new    ;}
</style>

<g
   id="Layer_2_00000032630537402916079620000005771629566145038760_">
	<g
   id="Layer_1-2_00000165923316247189894830000014510720634045227949_"
   transform="translate(14.165921,-1.6723657)">
		<path
   class="st1"
   d="M 100.4,110.8 H 48 c -4.8,0 -8.8,-3.8 -8.8,-8.6 0,-0.1 0,-0.1 0,-0.2 V 49.1 c 0,-4.8 3.8,-8.8 8.6,-8.8 0.1,0 0.1,0 0.2,0 h 52.4 c 4.8,0 8.8,3.8 8.8,8.6 0,0.1 0,0.1 0,0.2 V 102 c 0,4.8 -3.8,8.8 -8.6,8.8 -0.1,0 -0.1,0 -0.2,0 z"
   id="path14" />
		<path
   class="st2"
   d="m 100.4,41.7 c 4.1,0 7.4,3.3 7.4,7.4 V 102 c 0,4.1 -3.3,7.4 -7.4,7.4 H 48 c -4.1,0 -7.4,-3.3 -7.4,-7.4 V 49.1 c 0,-4.1 3.3,-7.4 7.4,-7.4 h 52.4 m 0,-1.4 H 48 c -4.9,0 -8.8,4 -8.8,8.8 V 102 c 0,4.8 3.8,8.8 8.6,8.8 0.1,0 0.1,0 0.2,0 h 52.4 c 4.8,0 8.8,-3.8 8.8,-8.6 0,-0.1 0,-0.1 0,-0.2 V 49.1 c 0,-4.8 -3.9,-8.8 -8.8,-8.8 z"
   id="path16" />
		
			<linearGradient
   id="SVGID_1_"
   gradientUnits="userSpaceOnUse"
   x1="-470.49869"
   y1="-26.6868"
   x2="-471.8287"
   y2="-28.0268"
   gradientTransform="matrix(18.52,0,0,-18.52,8773.6046,-433.28643)">
			<stop
   offset="0"
   style="stop-color:#4998D3"
   id="stop18" />
			<stop
   offset="1.000000e-02"
   style="stop-color:#4A99D3"
   id="stop20" />
			<stop
   offset="0.26"
   style="stop-color:#42BAEB"
   id="stop22" />
			<stop
   offset="0.51"
   style="stop-color:#41C7F2"
   id="stop24" />
			<stop
   offset="0.76"
   style="stop-color:#56C9E9"
   id="stop26" />
			<stop
   offset="1"
   style="stop-color:#5BCAE8"
   id="stop28" />
		</linearGradient>
		<path
   class="st3"
   d="m 57.8,57.1 c -0.4,0.6 -0.7,1.3 -0.6,2.1 v 32.6 c 0,0.8 0.2,1.5 0.7,2.1 L 58,94 76.3,75.7 v -0.3 z"
   id="path31"
   style="fill:url(#SVGID_1_)" />
		
			<linearGradient
   id="SVGID_00000154400413909163562890000001758965807256356258_"
   gradientUnits="userSpaceOnUse"
   x1="-469.53961"
   y1="-27.569401"
   x2="-471.4696"
   y2="-27.569401"
   gradientTransform="matrix(18.52,0,0,-18.52,8773.6046,-433.28643)">
			<stop
   offset="0"
   style="stop-color:#FEE000"
   id="stop33" />
			<stop
   offset="0.41"
   style="stop-color:#FEBD11"
   id="stop35" />
			<stop
   offset="0.78"
   style="stop-color:#FAA51A"
   id="stop37" />
			<stop
   offset="1"
   style="stop-color:#F99C1C"
   id="stop39" />
		</linearGradient>
		<path
   style="fill:url(#SVGID_00000154400413909163562890000001758965807256356258_)"
   d="m 82.3,81.9 -6.1,-6.1 v -0.4 l 6.1,-6 0.1,0.2 7.2,4.1 c 2.1,1.2 2.1,3.1 0,4.3 z"
   id="path42" />
		
			<linearGradient
   id="SVGID_00000018958299517192155340000014485711035897315737_"
   gradientUnits="userSpaceOnUse"
   x1="-470.26099"
   y1="-27.774599"
   x2="-472.07101"
   y2="-29.584499"
   gradientTransform="matrix(18.52,0,0,-18.52,8773.6046,-433.28643)">
			<stop
   offset="0"
   style="stop-color:#EF4049"
   id="stop44" />
			<stop
   offset="1"
   style="stop-color:#C31E63"
   id="stop46" />
		</linearGradient>
		<path
   style="fill:url(#SVGID_00000018958299517192155340000014485711035897315737_)"
   d="M 82.5,81.7 76.3,75.5 57.8,94 c 0.7,0.7 1.8,0.7 3.1,0.2 L 82.5,81.7"
   id="path49" />
		
			<linearGradient
   id="SVGID_00000020398147529876910720000003748897209926520192_"
   gradientUnits="userSpaceOnUse"
   x1="-471.63062"
   y1="-25.9869"
   x2="-470.82059"
   y2="-26.7969"
   gradientTransform="matrix(18.52,0,0,-18.52,8773.6046,-433.28643)">
			<stop
   offset="0"
   style="stop-color:#32A072"
   id="stop51" />
			<stop
   offset="7.000000e-02"
   style="stop-color:#2DA771"
   id="stop53" />
			<stop
   offset="0.48"
   style="stop-color:#4BBA71"
   id="stop55" />
			<stop
   offset="0.8"
   style="stop-color:#5EBD6B"
   id="stop57" />
			<stop
   offset="1"
   style="stop-color:#66BE69"
   id="stop59" />
		</linearGradient>
		<path
   style="fill:url(#SVGID_00000020398147529876910720000003748897209926520192_)"
   d="M 82.5,69.3 60.9,57.1 c -1.3,-0.7 -2.4,-0.6 -3.1,0.2 l 18.4,18.3 6.3,-6.3 z"
   id="path62" />
		<path
   class="st7"
   d="M 82.3,81.6 60.9,93.7 c -0.9,0.7 -2.1,0.7 -3,0 l -0.2,0.2 0.2,0.1 c 0.9,0.7 2.1,0.7 3,0 z"
   id="path64" />
		<path
   class="st8"
   d="m 57.8,93.7 c -0.4,-0.6 -0.7,-1.3 -0.6,-2.1 v 0.2 c 0,0.8 0.2,1.5 0.7,2.1 v -0.2 z m 31.9,-16.3 -7.4,4.1 0.1,0.1 7.2,-4.1 c 0.9,-0.3 1.4,-1.1 1.5,-2.1 0.1,0.9 -0.5,1.5 -1.4,2 z"
   id="path66" />
		<path
   class="st9"
   d="m 60.9,57.2 28.8,16.4 c 0.9,0.6 1.5,1.2 1.5,1.9 -0.1,-0.9 -0.6,-1.7 -1.5,-2.1 L 60.9,57.1 c -2.1,-1.2 -3.7,-0.3 -3.7,2.1 v 0.2 c 0,-2.3 1.6,-3.4 3.7,-2.2 z"
   id="path68" />
	</g>
</g>
</svg>
